<?xml version="1.0" standalone="no"?><!DOCTYPE svg PUBLIC "-//W3C//DTD SVG 1.1//EN" "http://www.w3.org/Graphics/SVG/1.1/DTD/svg11.dtd"><svg t="1602050091985" class="icon" viewBox="0 0 1024 1024" version="1.1" xmlns="http://www.w3.org/2000/svg" p-id="5296" xmlns:xlink="http://www.w3.org/1999/xlink" width="200" height="200"><defs><style type="text/css"></style></defs><path d="M512 68.425416c-244.673535 0-443.714777 199.511963-443.714777 444.762643S267.326465 957.950701 512 957.950701s443.714777-199.511963 443.714777-444.762643S756.672512 68.425416 512 68.425416zM512 889.526309c-207.025077 0-375.451044-168.824033-375.451044-376.338251 0-83.731006 27.759227-160.895457 74.072019-223.479841 7.077186 4.966105 14.398942 10.607592 17.340947 13.143345 0.649799 0.551562 2.466168 3.692089 3.666506 5.779633l1.283226 2.088568c0.183172 0.350994 2.316765 3.925403 4.432962 7.250124l1.866511 2.939959c0.683569 1.085728 1.616824 2.321882 2.600221 3.507894-0.583285 2.957355-1.100054 6.013971-1.38351 9.271154-3.300162 37.103036 6.2831 65.200978 29.199019 85.84925 3.499707 3.174296 7.349385 5.79703 12.932544 9.17087 0.899486 2.071172 1.983167 4.260024 3.433192 6.682189 5.983271 9.956769 13.266142 19.511379 20.549012 28.933983l8.300037 10.924817c10.516518 14.299681 21.282722 19.545148 30.498618 20.648272 10.333346 14.349823 23.531949 21.816888 34.732036 26.861788 1.38351 0.651846 3.000334 1.63729 4.732791 2.639107 7.833409 4.510734 17.566074 10.139941 28.798906 11.593036 4.483104 0.584308 8.566096 0.534166 12.132318 0.150426 4.366448 3.875261 10.416234 8.102538 18.399045 10.474562 2.749624 0.818645 5.316076 1.320065 7.649214 1.653663 2.866281 3.942799 6.932899 9.054213 12.982686 13.681604 4.350075 3.307326 8.582469 6.097882 12.716626 8.369621-0.066515 0.166799-0.13303 0.350994-0.199545 0.517793-3.049452 8.118911-3.733021 15.452947-3.833305 22.11774-4.366448 8.570189-5.916756 20.847817 1.966795 37.58706 2.783393 5.913687 6.41613 11.476379 10.132778 16.906042l5.966898 9.087982c5.716188 8.953929 12.199856 19.127639 23.082718 29.067013 2.966565 2.689249 6.932899 5.612834 11.249205 8.620331 0.916882 0.651846 1.882883 1.286296 2.833535 1.938142-0.216941 3.40761-0.733711 8.052396-1.666966 13.364379-1.399883 7.934716-2.200108 16.521279-2.966565 25.157983-0.816598 9.405207-1.683339 19.127639-3.549849 25.425066-0.933255 3.140527-1.916653 5.696746-2.783393 8.018627-3.799536 10.039657-8.966209 23.738657-4.050246 46.039569-0.033769 0.166799-0.066515 0.333598-0.100284 0.517793-2.699482 3.457752-6.482645 8.720615-9.149381 15.936971-3.749394 10.206456-2.349511 21.599947 3.632737 30.670533 1.182942 1.804089 2.51631 3.457752 3.982708 4.978385 6.132674 10.507308 17.365506 16.938788 29.448706 16.938788 0.916882 0 1.833765-0.033769 2.749624-0.116657 15.332197-1.236154 30.398334-3.307326 44.798299-6.164397 11.982916-2.372024 20.549012-12.311397 24.465205-23.921829 1.316995-3.875261 1.766226-8.035 1.466398-12.212136 1.150196-1.970888 1.99954-3.591805 2.38328-4.510734 0.649799-1.503237 1.299599-3.374864 2.066055-5.930059 1.166569-0.835018 2.266623-1.703805 3.282766-2.588965 12.449543-2.689249 26.532283-9.304923 35.464723-25.725918 10.265808-4.611018 18.199501-14.917758 29.064966-29.034267l3.949962-4.827959c4.949732-5.161556 11.116175-11.593036 15.965623-21.349237 0.583285-1.169639 1.266853-2.789533 2.116197-5.161556 2.783393-0.868787 5.633301-1.870604 8.499581-3.1569 4.666276-2.071172 14.249539-6.314823 20.448728-16.60519 11.199063-7.350408 17.015535-16.938788 19.899212-32.592302 1.083681-5.930059 1.249457-11.626805 1.249457-17.189498 0-0.451278-0.016373-0.902556-0.016373-1.352811 0.199545-0.184195 0.416486-0.367367 0.617054-0.551562 3.632737-3.341095 8.583492-7.918343 13.199627-14.784728 15.283078-22.769586 15.098883-48.595788-0.500397-65.852824-10.849092-11.977799-29.68202-18.459421-43.681872-21.834284-3.883447-0.918929-7.966439-1.570775-12.099572-2.171456-2.449795-0.367367-4.966105-0.534166-8.582469-2.155083-2.582825-1.486864-7.049556-4.075829-12.815887-5.847172-3.891633-2.179642-8.120958-3.232624-12.399401-3.76065-0.671289-14.247492-9.849322-27.166733-24.282033-31.320333-4.366448-1.252527-8.116865-1.954515-12.199856-2.171456l-2.816139-2.088568c-10.583033-7.868201-25.065885-18.659989-45.36521-20.915355-2.183735-0.234337-4.166903-0.284479-6.083555-0.234337-3.099594-1.753947-7.216355-3.708462-12.383028-5.028527-9.682523-2.405793-17.865903-1.302669-24.182772 0.852414-10.132778-2.088568-20.249183-0.317225-30.265304 5.26184-1.266853-2.939959-2.950192-5.746888-5.100158-8.335852-0.432859-0.534166-0.883113-1.051959-1.349741-1.553379-1.249457-2.238994-2.866281-4.611018-4.916986-6.915503 12.516058-3.106758 22.382776-12.629645 26.998911-26.394137 2.733251-8.15268 2.399653-16.087397 0.533143-26.093285 7.099698-4.827959 17.266245-12.579503 21.74935-26.043143 0.51677-1.570775 0.916882-3.124154 1.200338-4.643764 2.216481-2.789533 3.883447-5.596462 5.166673-8.219195 2.282996-1.336438 4.76656-3.040243 7.199982-5.26184 1.882883-1.703805 3.549849-3.441379 5.183046-5.311982 12.449543 0.300852 22.482037-3.124154 22.865777-3.27458 10.016121-3.708462 17.566074-9.321296 23.082718-13.430894l4.233418-3.040243c2.616594-1.753947 8.883321-0.784876 12.366655-0.100284 14.515598 3.056616 29.765931-3.959172 37.065174-16.705474 2.626827-4.569062 3.885494-9.19236 4.345981-13.769608 15.512299-4.326539 28.308743-16.956184 37.95238-38.618553 0.267083-0.618077 0.533143-1.236154 0.782829-1.854231 2.749624-0.267083 5.849218-0.768503 9.18315-1.703805 11.166317-3.124154 18.432815-9.304923 23.698748-13.781888 2.149966-1.486864 3.133364-1.854231 15.365966-2.255367 7.78736 0.375553 14.978133-2.042519 20.963451-6.235005 18.199501 20.810978 34.404578 43.404556 47.727001 67.871807-4.907777 1.802042-9.41237 4.591575-13.043061 8.425903-2.833535 1.888-6.633071 4.878101-10.066263 9.321296-2.716878 3.475148-4.466732 6.816243-5.633301 9.572006-1.64957 2.155083-3.083222 4.393054-4.03285 6.415107-5.199419 11.092639-3.866051 21.465894-3.216251 25.325805-0.649799 5.329379-2.149966 17.807574 6.066159 30.838356 2.942005 4.63967 7.135514 9.302877 12.07399 14.000875-4.281513 2.65241-9.993608 6.561439-15.357779 13.428847-4.866844 6.264681-7.250124 12.178367-8.566096 16.388249-2.76702 2.789533-5.983271 6.715959-8.483208 12.027941-6.482645 13.765515-4.716418 27.363208-3.549849 36.350906 0.199545 1.553379 0.450255 3.074012 0.51677 3.892657-0.066515 1.587148-0.283456 3.124154-0.466628 4.627391-1.083681 8.853645-3.083222 25.342178 7.349385 41.929971 6.049786 9.588379 15.098883 19.645432 26.848485 29.835516 6.783497 5.930059 17.032932 14.901385 31.598672 18.676361 2.866281 0.734734 5.733585 1.085728 8.549723 1.085728 3.810792 0 7.528464-0.657986 11.037381-1.864464C829.372278 772.535805 684.22755 889.526309 512 889.526309z" p-id="5297" fill="#1296db"></path></svg>